# xmcd CD database file
# Copyright (C) 1996 Ti Kan
#
# Track frame offsets:
# 	150
# 	14637
# 	28912
# 	43887
# 	56742
# 	69010
# 	80102
# 	95975
# 	111377
# 	129497
# 	143032
# 	160852
#
# Disc length: 2369 seconds
#
# Revision: 1
# Processed by: cddbd v1.4b41PL1 Copyright (c) Steve Scherf et al.
# Submitted via: DiscPlay 3.4.1
#
DISCID=b0093f0c
DTITLE=Various Artist - Everybody Wants To Be A Cowboy
DYEAR=1900
DGENRE=
TTITLE0=Everybody Wants To Be A Cowboy - Super "Boys"
TTITLE1=Oklahoma Nights - Troy Aikman
TTITLE2=Farewell - Doc SwiceGood
TTITLE3=Everything's Gone Wrong - Walt Garrison
TTITLE4=Ship My Body Back To Texas - Joe Avezzano
TTITLE5=Hell Of A Lot Together - W. Garrison and R. White
TTITLE6=Feel Again - D. Swicegood and C. Hunley
TTITLE7=The Rodeo's Over - Walt Garrison
TTITLE8=Don't Fan The Flame - Randy White
TTITLE9=What I Couldn't See - Joe Avezzano
TTITLE10=Emmitt, My Rodeo Star - Jay Novacek
TTITLE11=Everybody Wants To Be A Cowboy - Super "Boys"
EXTD=
EXTT0=
EXTT1=
EXTT2=
EXTT3=
EXTT4=
EXTT5=
EXTT6=
EXTT7=
EXTT8=
EXTT9=
EXTT10=
EXTT11=Texas Stadium Version
PLAYORDER=
